<svg xmlns="http://www.w3.org/2000/svg" version="1.1" xmlns:xlink="http://www.w3.org/1999/xlink" xmlns:svgjs="http://svgjs.dev/svgjs" viewBox="0 0 1920 1080"><rect width="1920" height="1080" fill="#a339ea"></rect><g transform="matrix(0.8131727983645296,0.8131727983645295,-0.8131727983645295,0.8131727983645296,611.8606759299903,-651.0030617822172)"><path d="M0,-1080C-4.037586642140013,-969.9042162718227,-19.394574685655687,-646.050563712332,-24.22551985284008,-419.42529763093677C-29.056465020024472,-192.80003154954161,-21.36290253010077,75.74810778025088,-28.985671003106347,279.7515964883711C-36.608439476111926,483.75508519649134,-76.72016914551944,593.3169424502432,-69.96213069087355,804.5956346177845C-63.204092236227666,1015.8743267853258,-0.09779539037663199,1321.5230219299162,11.56255972476896,1547.4237494936187C23.22291483991455,1773.3244770573212,1.9270932874614932,2057.9039582489363,0,2160L 1920 2160 L 1920 -1080 Z" fill="url(&quot;#SvgjsLinearGradient1034&quot;)"></path><path d="M960,-1080C939.2871350406579,-953.1810315917542,815.6406312701484,-513.8865844105219,835.722810243947,-319.0861895505248C855.8049892177456,-124.28579469052767,1068.3171264814057,-113.63919011412082,1080.4930738427918,88.8023691599829C1092.6690212041779,291.2439284340866,939.5254908119604,666.7939423520842,908.7784944122635,895.5631660940976C878.0314980125667,1124.3323898361111,887.4741778466546,1250.6782392944133,896.0110954446106,1461.4177116120636C904.5480130425667,1672.157183929714,949.3351825741017,2043.5696186020107,960,2160L 1920 2160 L 1920 -1080 Z" fill="url(&quot;#SvgjsLinearGradient1035&quot;)"></path></g><defs><linearGradient x1="0.1" y1="0" x2="0" y2="1" id="SvgjsLinearGradient1034"><stop stop-color="#a339ea" offset="0"></stop><stop stop-color="#8539ea" offset="0"></stop></linearGradient><linearGradient x1="0.1" y1="0" x2="0" y2="1" id="SvgjsLinearGradient1035"><stop stop-color="#e0bdf8" offset="0"></stop><stop stop-color="#d6bdf8" offset="0.5"></stop></linearGradient></defs></svg>

