<svg xmlns="http://www.w3.org/2000/svg" version="1.1" xmlns:xlink="http://www.w3.org/1999/xlink" xmlns:svgjs="http://svgjs.dev/svgjs" viewBox="0 0 1920 1080"><rect width="1920" height="1080" fill="#932de6"></rect><g transform="matrix(7.04171909509728e-17,1.15,-1.15,7.04171909509728e-17,1523.59423828125,-497.98337402343736)"><path d="M0,-1080C12.983737027600975,-963.1827182173914,75.6231204293057,-599.6453339260745,77.90242216560586,-379.0963093043487C80.18172390190601,-158.54728468262297,45.72190448812404,45.29465772648214,13.675810417800903,243.2941477303546C-18.370283652522232,441.2936377342271,-107.55497505639586,599.4678215697197,-114.37414225633296,808.9006307188861C-121.19330945627006,1018.3334398680524,-46.30154982454387,1274.707774411834,-27.239192781821714,1499.891002625353C-8.176835739099555,1725.074230838872,-4.539865463636953,2049.981833770892,0,2160L 1920 2160 L 1920 -1080 Z" fill="url(&quot;#SvgjsLinearGradient1040&quot;)"></path><path d="M960,-1080C962.2420457191954,-1021.8885489904011,979.268040378482,-902.6097689883599,973.4522743151722,-731.3312939424064C967.6365082518623,-560.052818896453,919.1174788531629,-235.02704267158086,925.1054036201408,-52.329149724279205C931.0933283871187,130.36874322302245,1014.0530233142952,246.7276256246842,1009.3798229170397,364.85606374140355C1004.7066225197843,482.9845018581229,900.6079249918539,531.0880681445985,897.0662012366081,656.4414789760367C893.5244774813623,781.7948898074749,966.8984111652327,946.087671268275,988.129480385565,1116.9765287300324C1009.3605496058973,1287.8653861917899,1029.1408632895295,1507.93737853492,1024.4526165586021,1681.7746237465813C1019.7643698276746,1855.6118689582424,970.742102759767,2080.29577062443,960,2160L 1920 2160 L 1920 -1080 Z" fill="url(&quot;#SvgjsLinearGradient1041&quot;)"></path></g><defs><linearGradient x1="0.1" y1="0" x2="0" y2="1" id="SvgjsLinearGradient1040"><stop stop-color="#932de6" offset="0"></stop><stop stop-color="#742de6" offset="0"></stop></linearGradient><linearGradient x1="0.1" y1="0" x2="0" y2="1" id="SvgjsLinearGradient1041"><stop stop-color="#dcbbf7" offset="0"></stop><stop stop-color="#d2bbf7" offset="0.5"></stop></linearGradient></defs></svg>


